<mxfile host="app.diagrams.net" modified="2023-12-01T14:22:36.013Z" agent="Mozilla/5.0 (Windows NT 10.0; Win64; x64) AppleWebKit/537.36 (KHTML, like Gecko) Chrome/116.0.5845.686 YaBrowser/23.9.5.686 Yowser/2.5 Safari/537.36" etag="8cM9jM3fImUJYSFT7rBO" version="21.7.2" type="device">
  <diagram id="C5RBs43oDa-KdzZeNtuy" name="Page-1">
    <mxGraphModel dx="1744" dy="947" grid="1" gridSize="10" guides="1" tooltips="1" connect="1" arrows="1" fold="1" page="1" pageScale="1" pageWidth="827" pageHeight="1169" math="0" shadow="0">
      <root>
        <mxCell id="WIyWlLk6GJQsqaUBKTNV-0" />
        <mxCell id="WIyWlLk6GJQsqaUBKTNV-1" parent="WIyWlLk6GJQsqaUBKTNV-0" />
        <mxCell id="Z8YnjFG0nWlUPJ0C185u-8" value="" style="edgeStyle=orthogonalEdgeStyle;rounded=0;orthogonalLoop=1;jettySize=auto;html=1;" edge="1" parent="WIyWlLk6GJQsqaUBKTNV-1" target="Z8YnjFG0nWlUPJ0C185u-11">
          <mxGeometry relative="1" as="geometry">
            <mxPoint x="617.5" y="70" as="sourcePoint" />
          </mxGeometry>
        </mxCell>
        <mxCell id="Z8YnjFG0nWlUPJ0C185u-10" value="" style="edgeStyle=orthogonalEdgeStyle;rounded=0;orthogonalLoop=1;jettySize=auto;html=1;" edge="1" parent="WIyWlLk6GJQsqaUBKTNV-1" source="Z8YnjFG0nWlUPJ0C185u-11" target="Z8YnjFG0nWlUPJ0C185u-13">
          <mxGeometry relative="1" as="geometry" />
        </mxCell>
        <mxCell id="Z8YnjFG0nWlUPJ0C185u-11" value="string[] array1&amp;nbsp;&lt;br&gt;string[] array2&lt;br&gt;int count = 0" style="shape=parallelogram;perimeter=parallelogramPerimeter;whiteSpace=wrap;html=1;fixedSize=1;" vertex="1" parent="WIyWlLk6GJQsqaUBKTNV-1">
          <mxGeometry x="557.5" y="130" width="120" height="60" as="geometry" />
        </mxCell>
        <mxCell id="Z8YnjFG0nWlUPJ0C185u-12" value="" style="edgeStyle=orthogonalEdgeStyle;rounded=0;orthogonalLoop=1;jettySize=auto;html=1;" edge="1" parent="WIyWlLk6GJQsqaUBKTNV-1" source="Z8YnjFG0nWlUPJ0C185u-13" target="Z8YnjFG0nWlUPJ0C185u-15">
          <mxGeometry relative="1" as="geometry" />
        </mxCell>
        <mxCell id="Z8YnjFG0nWlUPJ0C185u-25" value="" style="edgeStyle=orthogonalEdgeStyle;rounded=0;orthogonalLoop=1;jettySize=auto;html=1;" edge="1" parent="WIyWlLk6GJQsqaUBKTNV-1" source="Z8YnjFG0nWlUPJ0C185u-13" target="Z8YnjFG0nWlUPJ0C185u-24">
          <mxGeometry relative="1" as="geometry" />
        </mxCell>
        <mxCell id="Z8YnjFG0nWlUPJ0C185u-13" value="for (int i = 0;&lt;br&gt;i &amp;lt; array1.length;&lt;br&gt;i++)" style="shape=hexagon;perimeter=hexagonPerimeter2;whiteSpace=wrap;html=1;fixedSize=1;" vertex="1" parent="WIyWlLk6GJQsqaUBKTNV-1">
          <mxGeometry x="557.5" y="220" width="120" height="80" as="geometry" />
        </mxCell>
        <mxCell id="Z8YnjFG0nWlUPJ0C185u-14" value="Yes" style="edgeStyle=orthogonalEdgeStyle;rounded=0;orthogonalLoop=1;jettySize=auto;html=1;exitX=0.5;exitY=1;exitDx=0;exitDy=0;" edge="1" parent="WIyWlLk6GJQsqaUBKTNV-1" source="Z8YnjFG0nWlUPJ0C185u-15" target="Z8YnjFG0nWlUPJ0C185u-17">
          <mxGeometry relative="1" as="geometry">
            <Array as="points">
              <mxPoint x="618" y="455" />
            </Array>
          </mxGeometry>
        </mxCell>
        <mxCell id="Z8YnjFG0nWlUPJ0C185u-22" value="No" style="edgeStyle=orthogonalEdgeStyle;rounded=0;orthogonalLoop=1;jettySize=auto;html=1;entryX=0;entryY=0.5;entryDx=0;entryDy=0;" edge="1" parent="WIyWlLk6GJQsqaUBKTNV-1" source="Z8YnjFG0nWlUPJ0C185u-15" target="Z8YnjFG0nWlUPJ0C185u-13">
          <mxGeometry relative="1" as="geometry">
            <mxPoint x="540" y="320" as="targetPoint" />
            <Array as="points">
              <mxPoint x="540" y="400" />
              <mxPoint x="540" y="260" />
            </Array>
          </mxGeometry>
        </mxCell>
        <mxCell id="Z8YnjFG0nWlUPJ0C185u-15" value="if (array1[i].length &amp;lt;= 3)" style="rhombus;whiteSpace=wrap;html=1;" vertex="1" parent="WIyWlLk6GJQsqaUBKTNV-1">
          <mxGeometry x="505" y="360" width="225" height="80" as="geometry" />
        </mxCell>
        <mxCell id="Z8YnjFG0nWlUPJ0C185u-16" value="" style="edgeStyle=orthogonalEdgeStyle;rounded=0;orthogonalLoop=1;jettySize=auto;html=1;" edge="1" parent="WIyWlLk6GJQsqaUBKTNV-1" source="Z8YnjFG0nWlUPJ0C185u-17" target="Z8YnjFG0nWlUPJ0C185u-13">
          <mxGeometry relative="1" as="geometry">
            <Array as="points">
              <mxPoint x="450" y="260" />
            </Array>
          </mxGeometry>
        </mxCell>
        <mxCell id="Z8YnjFG0nWlUPJ0C185u-17" value="array2[count] = array1[i]&lt;br&gt;count++;" style="whiteSpace=wrap;html=1;" vertex="1" parent="WIyWlLk6GJQsqaUBKTNV-1">
          <mxGeometry x="310" y="430" width="177.5" height="50" as="geometry" />
        </mxCell>
        <mxCell id="Z8YnjFG0nWlUPJ0C185u-23" value="Start" style="ellipse;whiteSpace=wrap;html=1;" vertex="1" parent="WIyWlLk6GJQsqaUBKTNV-1">
          <mxGeometry x="557.5" width="120" height="80" as="geometry" />
        </mxCell>
        <mxCell id="Z8YnjFG0nWlUPJ0C185u-24" value="Finish" style="ellipse;whiteSpace=wrap;html=1;" vertex="1" parent="WIyWlLk6GJQsqaUBKTNV-1">
          <mxGeometry x="700" y="220" width="120" height="80" as="geometry" />
        </mxCell>
      </root>
    </mxGraphModel>
  </diagram>
</mxfile>
